<mxfile host="app.diagrams.net" modified="2022-04-20T10:58:59.355Z" agent="5.0 (Macintosh; Intel Mac OS X 10_15_7) AppleWebKit/605.1.15 (KHTML, like Gecko) Version/15.4 Safari/605.1.15" etag="oYshkLfp8IYjzW8AaQti" version="17.2.6" type="github">
  <diagram id="DXvc2E8cJ_xK4DUkMEUM" name="Page-2">
    <mxGraphModel dx="3060" dy="701" grid="1" gridSize="10" guides="1" tooltips="1" connect="1" arrows="1" fold="1" page="1" pageScale="1" pageWidth="827" pageHeight="1169" math="0" shadow="0">
      <root>
        <mxCell id="0" />
        <mxCell id="1" parent="0" />
        <mxCell id="i0h57hYHjh8C6_ZTMd2F-83" value="" style="rounded=1;whiteSpace=wrap;html=1;fillColor=#b1ddf0;strokeColor=#10739e;" parent="1" vertex="1">
          <mxGeometry x="-950" y="220" width="150" height="290" as="geometry" />
        </mxCell>
        <mxCell id="i0h57hYHjh8C6_ZTMd2F-28" value="" style="rounded=1;whiteSpace=wrap;html=1;fillColor=#b0e3e6;strokeColor=#0e8088;" parent="1" vertex="1">
          <mxGeometry x="-785" y="190" width="808" height="300" as="geometry" />
        </mxCell>
        <mxCell id="i0h57hYHjh8C6_ZTMd2F-78" value="" style="rounded=1;whiteSpace=wrap;html=1;fillColor=none;strokeColor=#23445d;dashed=1;" parent="1" vertex="1">
          <mxGeometry x="-493" y="256.25" width="160" height="213.75" as="geometry" />
        </mxCell>
        <mxCell id="i0h57hYHjh8C6_ZTMd2F-23" value="" style="rounded=1;whiteSpace=wrap;html=1;fillColor=#b1ddf0;strokeColor=#10739e;" parent="1" vertex="1">
          <mxGeometry x="-775" y="59.25" width="798" height="120" as="geometry" />
        </mxCell>
        <mxCell id="i0h57hYHjh8C6_ZTMd2F-75" value="" style="rounded=1;whiteSpace=wrap;html=1;fillColor=#bac8d3;strokeColor=#23445d;" parent="1" vertex="1">
          <mxGeometry x="-162" y="74.25" width="170" height="95.75" as="geometry" />
        </mxCell>
        <mxCell id="i0h57hYHjh8C6_ZTMd2F-50" value="" style="rounded=1;whiteSpace=wrap;html=1;fillColor=#bac8d3;strokeColor=#23445d;" parent="1" vertex="1">
          <mxGeometry x="-160" y="400" width="170" height="68.75" as="geometry" />
        </mxCell>
        <mxCell id="i0h57hYHjh8C6_ZTMd2F-48" value="" style="rounded=1;whiteSpace=wrap;html=1;fillColor=#d0cee2;strokeColor=#56517e;" parent="1" vertex="1">
          <mxGeometry x="-782.5" y="502" width="805.5" height="158" as="geometry" />
        </mxCell>
        <mxCell id="i0h57hYHjh8C6_ZTMd2F-84" style="edgeStyle=orthogonalEdgeStyle;rounded=0;orthogonalLoop=1;jettySize=auto;html=1;exitX=0.5;exitY=0;exitDx=0;exitDy=0;" parent="1" source="i0h57hYHjh8C6_ZTMd2F-2" target="i0h57hYHjh8C6_ZTMd2F-45" edge="1">
          <mxGeometry relative="1" as="geometry" />
        </mxCell>
        <mxCell id="i0h57hYHjh8C6_ZTMd2F-2" value="system(系统表)" style="rounded=1;whiteSpace=wrap;html=1;fillColor=#eeeeee;strokeColor=#36393d;" parent="1" vertex="1">
          <mxGeometry x="-935.25" y="329.5" width="122.5" height="40" as="geometry" />
        </mxCell>
        <mxCell id="i0h57hYHjh8C6_ZTMd2F-3" value="user(用户表 基本信息)" style="rounded=1;whiteSpace=wrap;html=1;fillColor=#f8cecc;strokeColor=#b85450;gradientColor=#ea6b66;" parent="1" vertex="1">
          <mxGeometry x="-440" y="124.75" width="145" height="35" as="geometry" />
        </mxCell>
        <mxCell id="i0h57hYHjh8C6_ZTMd2F-22" value="" style="edgeStyle=orthogonalEdgeStyle;rounded=0;orthogonalLoop=1;jettySize=auto;html=1;exitX=0.5;exitY=0;exitDx=0;exitDy=0;" parent="1" source="i0h57hYHjh8C6_ZTMd2F-18" target="i0h57hYHjh8C6_ZTMd2F-3" edge="1">
          <mxGeometry relative="1" as="geometry" />
        </mxCell>
        <mxCell id="i0h57hYHjh8C6_ZTMd2F-18" value="account(康养)" style="rounded=1;whiteSpace=wrap;html=1;fillColor=#eeeeee;strokeColor=#36393d;" parent="1" vertex="1">
          <mxGeometry x="-770" y="270" width="110" height="40" as="geometry" />
        </mxCell>
        <mxCell id="i0h57hYHjh8C6_ZTMd2F-30" style="edgeStyle=orthogonalEdgeStyle;rounded=0;orthogonalLoop=1;jettySize=auto;html=1;exitX=0.5;exitY=0;exitDx=0;exitDy=0;entryX=0.5;entryY=1;entryDx=0;entryDy=0;" parent="1" source="i0h57hYHjh8C6_ZTMd2F-19" target="i0h57hYHjh8C6_ZTMd2F-3" edge="1">
          <mxGeometry relative="1" as="geometry" />
        </mxCell>
        <mxCell id="i0h57hYHjh8C6_ZTMd2F-19" value="account_doctor_desk(医生工作台)" style="rounded=1;whiteSpace=wrap;html=1;fillColor=#eeeeee;strokeColor=#36393d;" parent="1" vertex="1">
          <mxGeometry x="-635" y="270" width="130" height="40" as="geometry" />
        </mxCell>
        <mxCell id="i0h57hYHjh8C6_ZTMd2F-32" style="edgeStyle=orthogonalEdgeStyle;rounded=0;orthogonalLoop=1;jettySize=auto;html=1;exitX=0.5;exitY=0;exitDx=0;exitDy=0;entryX=0.5;entryY=1;entryDx=0;entryDy=0;" parent="1" source="i0h57hYHjh8C6_ZTMd2F-21" target="i0h57hYHjh8C6_ZTMd2F-3" edge="1">
          <mxGeometry relative="1" as="geometry" />
        </mxCell>
        <mxCell id="i0h57hYHjh8C6_ZTMd2F-21" value="account_health_insurance(保险健康)" style="rounded=1;whiteSpace=wrap;html=1;fillColor=#eeeeee;strokeColor=#36393d;" parent="1" vertex="1">
          <mxGeometry x="-160" y="270" width="160" height="40" as="geometry" />
        </mxCell>
        <mxCell id="i0h57hYHjh8C6_ZTMd2F-24" value="account_trace(账号行为表,注册、登录、退出、删除)" style="rounded=1;whiteSpace=wrap;html=1;fillColor=#eeeeee;strokeColor=#36393d;" parent="1" vertex="1">
          <mxGeometry x="-143" y="412" width="137" height="45" as="geometry" />
        </mxCell>
        <mxCell id="i0h57hYHjh8C6_ZTMd2F-29" style="edgeStyle=orthogonalEdgeStyle;rounded=0;orthogonalLoop=1;jettySize=auto;html=1;exitX=0.5;exitY=0;exitDx=0;exitDy=0;entryX=0.5;entryY=1;entryDx=0;entryDy=0;" parent="1" source="i0h57hYHjh8C6_ZTMd2F-25" target="i0h57hYHjh8C6_ZTMd2F-26" edge="1">
          <mxGeometry relative="1" as="geometry" />
        </mxCell>
        <mxCell id="i0h57hYHjh8C6_ZTMd2F-51" style="edgeStyle=orthogonalEdgeStyle;rounded=0;orthogonalLoop=1;jettySize=auto;html=1;exitX=0.5;exitY=1;exitDx=0;exitDy=0;entryX=0.5;entryY=0;entryDx=0;entryDy=0;" parent="1" source="i0h57hYHjh8C6_ZTMd2F-25" target="i0h57hYHjh8C6_ZTMd2F-43" edge="1">
          <mxGeometry relative="1" as="geometry" />
        </mxCell>
        <mxCell id="i0h57hYHjh8C6_ZTMd2F-25" value="account_ota_sub_info(子系统关联信息:实名状态等)" style="rounded=1;whiteSpace=wrap;html=1;fillColor=#eeeeee;strokeColor=#36393d;" parent="1" vertex="1">
          <mxGeometry x="-485" y="340" width="150" height="40" as="geometry" />
        </mxCell>
        <mxCell id="i0h57hYHjh8C6_ZTMd2F-31" style="edgeStyle=orthogonalEdgeStyle;rounded=0;orthogonalLoop=1;jettySize=auto;html=1;exitX=0.5;exitY=0;exitDx=0;exitDy=0;entryX=0.5;entryY=1;entryDx=0;entryDy=0;" parent="1" source="i0h57hYHjh8C6_ZTMd2F-26" target="i0h57hYHjh8C6_ZTMd2F-3" edge="1">
          <mxGeometry relative="1" as="geometry" />
        </mxCell>
        <mxCell id="i0h57hYHjh8C6_ZTMd2F-39" value="uuid" style="edgeLabel;html=1;align=center;verticalAlign=middle;resizable=0;points=[];" parent="i0h57hYHjh8C6_ZTMd2F-31" vertex="1" connectable="0">
          <mxGeometry x="0.6222" y="-2" relative="1" as="geometry">
            <mxPoint as="offset" />
          </mxGeometry>
        </mxCell>
        <mxCell id="i0h57hYHjh8C6_ZTMd2F-26" value="account_ota(硬件一体机)" style="rounded=1;whiteSpace=wrap;html=1;fillColor=#eeeeee;strokeColor=#36393d;" parent="1" vertex="1">
          <mxGeometry x="-480" y="270" width="140" height="40" as="geometry" />
        </mxCell>
        <mxCell id="i0h57hYHjh8C6_ZTMd2F-66" style="edgeStyle=orthogonalEdgeStyle;rounded=0;orthogonalLoop=1;jettySize=auto;html=1;exitX=0;exitY=0.5;exitDx=0;exitDy=0;" parent="1" source="i0h57hYHjh8C6_ZTMd2F-33" target="i0h57hYHjh8C6_ZTMd2F-44" edge="1">
          <mxGeometry relative="1" as="geometry" />
        </mxCell>
        <mxCell id="i0h57hYHjh8C6_ZTMd2F-74" style="edgeStyle=orthogonalEdgeStyle;rounded=0;orthogonalLoop=1;jettySize=auto;html=1;exitX=0.5;exitY=0;exitDx=0;exitDy=0;entryX=0.5;entryY=1;entryDx=0;entryDy=0;" parent="1" source="i0h57hYHjh8C6_ZTMd2F-33" target="i0h57hYHjh8C6_ZTMd2F-35" edge="1">
          <mxGeometry relative="1" as="geometry" />
        </mxCell>
        <mxCell id="i0h57hYHjh8C6_ZTMd2F-33" value="group_permission" style="rounded=1;whiteSpace=wrap;html=1;fillColor=#eeeeee;strokeColor=#36393d;" parent="1" vertex="1">
          <mxGeometry x="-442.5" y="597.5" width="125" height="42.5" as="geometry" />
        </mxCell>
        <mxCell id="i0h57hYHjh8C6_ZTMd2F-73" style="edgeStyle=orthogonalEdgeStyle;rounded=0;orthogonalLoop=1;jettySize=auto;html=1;exitX=1;exitY=0.5;exitDx=0;exitDy=0;entryX=0;entryY=0.5;entryDx=0;entryDy=0;" parent="1" source="i0h57hYHjh8C6_ZTMd2F-34" target="i0h57hYHjh8C6_ZTMd2F-35" edge="1">
          <mxGeometry relative="1" as="geometry" />
        </mxCell>
        <mxCell id="i0h57hYHjh8C6_ZTMd2F-34" value="group_member(组员)" style="rounded=1;whiteSpace=wrap;html=1;fillColor=#eeeeee;strokeColor=#36393d;" parent="1" vertex="1">
          <mxGeometry x="-617.5" y="520" width="140" height="40" as="geometry" />
        </mxCell>
        <mxCell id="i0h57hYHjh8C6_ZTMd2F-35" value="group(用户组,系统隔离)" style="rounded=1;whiteSpace=wrap;html=1;fillColor=#f8cecc;strokeColor=#b85450;gradientColor=#ea6b66;" parent="1" vertex="1">
          <mxGeometry x="-421.25" y="520" width="82.5" height="40" as="geometry" />
        </mxCell>
        <mxCell id="i0h57hYHjh8C6_ZTMd2F-36" value="channel(渠道表,标识用户来源)" style="rounded=1;whiteSpace=wrap;html=1;fillColor=#eeeeee;strokeColor=#36393d;" parent="1" vertex="1">
          <mxGeometry x="-934" y="445" width="120" height="40.5" as="geometry" />
        </mxCell>
        <mxCell id="i0h57hYHjh8C6_ZTMd2F-67" style="edgeStyle=orthogonalEdgeStyle;rounded=0;orthogonalLoop=1;jettySize=auto;html=1;exitX=0.5;exitY=0;exitDx=0;exitDy=0;entryX=1;entryY=0.5;entryDx=0;entryDy=0;" parent="1" source="i0h57hYHjh8C6_ZTMd2F-37" target="i0h57hYHjh8C6_ZTMd2F-35" edge="1">
          <mxGeometry relative="1" as="geometry" />
        </mxCell>
        <mxCell id="i0h57hYHjh8C6_ZTMd2F-37" value="casbin_rule(接口权限)" style="rounded=1;whiteSpace=wrap;html=1;fillColor=#eeeeee;strokeColor=#36393d;" parent="1" vertex="1">
          <mxGeometry x="-277.5" y="600" width="140" height="40" as="geometry" />
        </mxCell>
        <mxCell id="i0h57hYHjh8C6_ZTMd2F-40" style="edgeStyle=orthogonalEdgeStyle;rounded=0;orthogonalLoop=1;jettySize=auto;html=1;exitX=0.5;exitY=0;exitDx=0;exitDy=0;" parent="1" source="i0h57hYHjh8C6_ZTMd2F-38" target="i0h57hYHjh8C6_ZTMd2F-3" edge="1">
          <mxGeometry relative="1" as="geometry" />
        </mxCell>
        <mxCell id="i0h57hYHjh8C6_ZTMd2F-38" value="account_user_focus(用户聚焦、橙十)" style="rounded=1;whiteSpace=wrap;html=1;fillColor=#eeeeee;strokeColor=#36393d;" parent="1" vertex="1">
          <mxGeometry x="-320" y="270" width="140" height="40" as="geometry" />
        </mxCell>
        <mxCell id="i0h57hYHjh8C6_ZTMd2F-41" value="user_elder(长者信息)" style="rounded=1;whiteSpace=wrap;html=1;fillColor=#eeeeee;strokeColor=#36393d;" parent="1" vertex="1">
          <mxGeometry x="-145" y="79.25" width="140" height="40" as="geometry" />
        </mxCell>
        <mxCell id="i0h57hYHjh8C6_ZTMd2F-42" value="user_doctor" style="rounded=1;whiteSpace=wrap;html=1;fillColor=#eeeeee;strokeColor=#36393d;" parent="1" vertex="1">
          <mxGeometry x="734" y="140" width="155" height="40" as="geometry" />
        </mxCell>
        <mxCell id="i0h57hYHjh8C6_ZTMd2F-43" value="sub_system(硬件一体机区分不同设备厂商用户)" style="rounded=1;whiteSpace=wrap;html=1;fillColor=#eeeeee;strokeColor=#36393d;" parent="1" vertex="1">
          <mxGeometry x="-470.5" y="407.5" width="115" height="37.5" as="geometry" />
        </mxCell>
        <mxCell id="i0h57hYHjh8C6_ZTMd2F-44" value="resource(菜单等资源)" style="rounded=1;whiteSpace=wrap;html=1;fillColor=#eeeeee;strokeColor=#36393d;" parent="1" vertex="1">
          <mxGeometry x="-612.5" y="598.75" width="110" height="40" as="geometry" />
        </mxCell>
        <mxCell id="i0h57hYHjh8C6_ZTMd2F-45" value="platform(平台表)" style="rounded=1;whiteSpace=wrap;html=1;fillColor=#eeeeee;strokeColor=#36393d;" parent="1" vertex="1">
          <mxGeometry x="-933.75" y="240" width="120" height="40" as="geometry" />
        </mxCell>
        <mxCell id="i0h57hYHjh8C6_ZTMd2F-54" value="" style="shape=flexArrow;endArrow=classic;html=1;rounded=0;width=36;endSize=4.67;fillColor=#d5e8d4;strokeColor=#82b366;gradientColor=#97d077;" parent="1" edge="1">
          <mxGeometry width="50" height="50" relative="1" as="geometry">
            <mxPoint x="-548" y="460" as="sourcePoint" />
            <mxPoint x="-548" y="510" as="targetPoint" />
          </mxGeometry>
        </mxCell>
        <mxCell id="i0h57hYHjh8C6_ZTMd2F-57" value="UID+systemCode" style="edgeLabel;html=1;align=center;verticalAlign=middle;resizable=0;points=[];" parent="i0h57hYHjh8C6_ZTMd2F-54" vertex="1" connectable="0">
          <mxGeometry y="-1" relative="1" as="geometry">
            <mxPoint as="offset" />
          </mxGeometry>
        </mxCell>
        <mxCell id="i0h57hYHjh8C6_ZTMd2F-58" value="" style="shape=flexArrow;endArrow=classic;html=1;rounded=0;width=36;endSize=4.67;fillColor=#d5e8d4;strokeColor=#82b366;gradientColor=#97d077;" parent="1" edge="1">
          <mxGeometry width="50" height="50" relative="1" as="geometry">
            <mxPoint x="-618.5" y="148.75" as="sourcePoint" />
            <mxPoint x="-618.5" y="198.75" as="targetPoint" />
          </mxGeometry>
        </mxCell>
        <mxCell id="i0h57hYHjh8C6_ZTMd2F-60" value="UUID" style="edgeLabel;html=1;align=center;verticalAlign=middle;resizable=0;points=[];" parent="i0h57hYHjh8C6_ZTMd2F-58" vertex="1" connectable="0">
          <mxGeometry x="-0.1" y="1" relative="1" as="geometry">
            <mxPoint as="offset" />
          </mxGeometry>
        </mxCell>
        <mxCell id="i0h57hYHjh8C6_ZTMd2F-76" value="" style="rounded=1;whiteSpace=wrap;html=1;fillColor=none;strokeColor=#23445d;dashed=1;" parent="1" vertex="1">
          <mxGeometry x="-775" y="256.25" width="125" height="93.75" as="geometry" />
        </mxCell>
        <mxCell id="i0h57hYHjh8C6_ZTMd2F-77" value="" style="rounded=1;whiteSpace=wrap;html=1;fillColor=none;strokeColor=#23445d;dashed=1;" parent="1" vertex="1">
          <mxGeometry x="-640" y="257.5" width="140" height="92.5" as="geometry" />
        </mxCell>
        <mxCell id="i0h57hYHjh8C6_ZTMd2F-79" value="" style="rounded=1;whiteSpace=wrap;html=1;fillColor=none;strokeColor=#23445d;dashed=1;" parent="1" vertex="1">
          <mxGeometry x="-326" y="258" width="152" height="92" as="geometry" />
        </mxCell>
        <mxCell id="i0h57hYHjh8C6_ZTMd2F-80" value="" style="rounded=1;whiteSpace=wrap;html=1;fillColor=none;strokeColor=#23445d;dashed=1;" parent="1" vertex="1">
          <mxGeometry x="-166" y="257.5" width="176" height="92.5" as="geometry" />
        </mxCell>
        <mxCell id="i0h57hYHjh8C6_ZTMd2F-81" style="edgeStyle=orthogonalEdgeStyle;rounded=0;orthogonalLoop=1;jettySize=auto;html=1;exitX=0.5;exitY=1;exitDx=0;exitDy=0;" parent="1" source="i0h57hYHjh8C6_ZTMd2F-78" target="i0h57hYHjh8C6_ZTMd2F-78" edge="1">
          <mxGeometry relative="1" as="geometry" />
        </mxCell>
        <mxCell id="i0h57hYHjh8C6_ZTMd2F-86" value="&lt;p style=&quot;margin: 0px ; font-stretch: normal ; font-size: 14px ; line-height: normal ; color: rgb(18 , 20 , 22)&quot;&gt;wellness&lt;/p&gt;" style="text;html=1;align=center;verticalAlign=middle;resizable=0;points=[];autosize=1;strokeColor=none;fillColor=none;" parent="1" vertex="1">
          <mxGeometry x="-750" y="329.5" width="70" height="20" as="geometry" />
        </mxCell>
        <mxCell id="i0h57hYHjh8C6_ZTMd2F-87" value="&lt;p style=&quot;margin: 0px ; font-stretch: normal ; font-size: 14px ; line-height: normal ; color: rgb(18 , 20 , 22)&quot;&gt;ota&lt;/p&gt;" style="text;html=1;align=center;verticalAlign=middle;resizable=0;points=[];autosize=1;strokeColor=none;fillColor=none;" parent="1" vertex="1">
          <mxGeometry x="-428" y="450" width="30" height="20" as="geometry" />
        </mxCell>
        <mxCell id="i0h57hYHjh8C6_ZTMd2F-88" value="&lt;p style=&quot;margin: 0px ; font-stretch: normal ; font-size: 14px ; line-height: normal ; color: rgb(18 , 20 , 22)&quot;&gt;doctorDesk&lt;/p&gt;" style="text;html=1;align=center;verticalAlign=middle;resizable=0;points=[];autosize=1;strokeColor=none;fillColor=none;" parent="1" vertex="1">
          <mxGeometry x="-617.5" y="330" width="90" height="20" as="geometry" />
        </mxCell>
        <mxCell id="i0h57hYHjh8C6_ZTMd2F-89" value="&lt;p style=&quot;margin: 0px ; font-stretch: normal ; font-size: 14px ; line-height: normal ; color: rgb(18 , 20 , 22)&quot;&gt;userFocus&lt;/p&gt;" style="text;html=1;align=center;verticalAlign=middle;resizable=0;points=[];autosize=1;strokeColor=none;fillColor=none;" parent="1" vertex="1">
          <mxGeometry x="-290" y="330" width="80" height="20" as="geometry" />
        </mxCell>
        <mxCell id="i0h57hYHjh8C6_ZTMd2F-90" value="&lt;p style=&quot;margin: 0px ; font-stretch: normal ; font-size: 14px ; line-height: normal ; color: rgb(18 , 20 , 22)&quot;&gt;healthInsurance&lt;/p&gt;" style="text;html=1;align=center;verticalAlign=middle;resizable=0;points=[];autosize=1;strokeColor=none;fillColor=none;" parent="1" vertex="1">
          <mxGeometry x="-135" y="330" width="120" height="20" as="geometry" />
        </mxCell>
        <mxCell id="i0h57hYHjh8C6_ZTMd2F-91" value="" style="shape=flexArrow;endArrow=classic;html=1;rounded=0;width=36;endSize=4.67;fillColor=#d5e8d4;strokeColor=#82b366;gradientColor=#97d077;" parent="1" edge="1">
          <mxGeometry width="50" height="50" relative="1" as="geometry">
            <mxPoint x="-833" y="404" as="sourcePoint" />
            <mxPoint x="-748" y="404" as="targetPoint" />
          </mxGeometry>
        </mxCell>
        <mxCell id="i0h57hYHjh8C6_ZTMd2F-92" value="systemCode" style="edgeLabel;html=1;align=center;verticalAlign=middle;resizable=0;points=[];" parent="i0h57hYHjh8C6_ZTMd2F-91" vertex="1" connectable="0">
          <mxGeometry y="-1" relative="1" as="geometry">
            <mxPoint as="offset" />
          </mxGeometry>
        </mxCell>
        <mxCell id="i0h57hYHjh8C6_ZTMd2F-101" value="user_doctor(医生信息)" style="rounded=1;whiteSpace=wrap;html=1;fillColor=#eeeeee;strokeColor=#36393d;" parent="1" vertex="1">
          <mxGeometry x="-146" y="124.25" width="140" height="40" as="geometry" />
        </mxCell>
        <mxCell id="i0h57hYHjh8C6_ZTMd2F-102" value="用户" style="shape=note;whiteSpace=wrap;html=1;backgroundOutline=1;darkOpacity=0.05;dashed=1;fillColor=none;size=0;strokeColor=none;fontSize=18;fontStyle=3" parent="1" vertex="1">
          <mxGeometry x="-760" y="64.25" width="80" height="100" as="geometry" />
        </mxCell>
        <mxCell id="i0h57hYHjh8C6_ZTMd2F-104" value="账号" style="shape=note;whiteSpace=wrap;html=1;backgroundOutline=1;darkOpacity=0.05;dashed=1;fillColor=none;size=0;strokeColor=none;fontSize=18;fontStyle=3" parent="1" vertex="1">
          <mxGeometry x="-750" y="384.38" width="80" height="100" as="geometry" />
        </mxCell>
        <mxCell id="i0h57hYHjh8C6_ZTMd2F-105" value="权限" style="shape=note;whiteSpace=wrap;html=1;backgroundOutline=1;darkOpacity=0.05;dashed=1;fillColor=none;size=0;strokeColor=none;fontSize=18;fontStyle=3" parent="1" vertex="1">
          <mxGeometry x="-770" y="510" width="80" height="100" as="geometry" />
        </mxCell>
        <mxCell id="i0h57hYHjh8C6_ZTMd2F-106" style="edgeStyle=orthogonalEdgeStyle;rounded=0;orthogonalLoop=1;jettySize=auto;html=1;exitX=0.5;exitY=1;exitDx=0;exitDy=0;fontSize=18;" parent="1" source="i0h57hYHjh8C6_ZTMd2F-83" target="i0h57hYHjh8C6_ZTMd2F-83" edge="1">
          <mxGeometry relative="1" as="geometry" />
        </mxCell>
        <mxCell id="i0h57hYHjh8C6_ZTMd2F-110" value="用户相关:&lt;br&gt;&lt;ol style=&quot;font-size: 14px&quot;&gt;&lt;li&gt;包含用户基本信息(身份证号、家庭住址、生日、邮箱等)&lt;/li&gt;&lt;li&gt;具有唯一UUID(和身份证号唯一对应)&lt;/li&gt;&lt;/ol&gt;" style="shape=note;whiteSpace=wrap;html=1;backgroundOutline=1;darkOpacity=0.05;fontSize=18;fillColor=#ffff88;strokeColor=#36393d;align=left;" parent="1" vertex="1">
          <mxGeometry x="51" y="74.25" width="249" height="115.75" as="geometry" />
        </mxCell>
        <mxCell id="i0h57hYHjh8C6_ZTMd2F-111" value="账户相关:&lt;br&gt;&lt;ol style=&quot;font-size: 14px&quot;&gt;&lt;li&gt;不同的系统有一个独立的账号表&lt;/li&gt;&lt;li&gt;包含账号相关信息(登录注册所需的用户名、密码、验证码登录的手机号、昵称、头像、关联的三方账号id、openId、药联用户体系实名状态等)&lt;/li&gt;&lt;li&gt;不同的系统的账号登录方式不同,涉及的字段不同,如手机验证码登录和账号密码登录&lt;/li&gt;&lt;li&gt;用户token统一使用jwt方式,不同系统下用户token相互隔离&lt;/li&gt;&lt;ul&gt;&lt;li&gt;token包含 系统id、系统code、uid、uuid、过期时间、是否实名等信息&lt;/li&gt;&lt;/ul&gt;&lt;/ol&gt;" style="shape=note;whiteSpace=wrap;html=1;backgroundOutline=1;darkOpacity=0.05;fontSize=18;fillColor=#ffff88;strokeColor=#36393d;align=left;" parent="1" vertex="1">
          <mxGeometry x="51" y="194.5" width="259" height="280" as="geometry" />
        </mxCell>
        <mxCell id="i0h57hYHjh8C6_ZTMd2F-112" value="权限相关:&lt;br&gt;&lt;ol style=&quot;font-size: 14px&quot;&gt;&lt;li&gt;用户组是系统隔离的,用户组的系统所属是特定的&lt;/li&gt;&lt;li&gt;接口和菜单等资源权限基于rbac做的&lt;/li&gt;&lt;li&gt;数据权限在具体的业务中做&lt;/li&gt;&lt;/ol&gt;" style="shape=note;whiteSpace=wrap;html=1;backgroundOutline=1;darkOpacity=0.05;fontSize=18;fillColor=#ffff88;strokeColor=#36393d;align=left;" parent="1" vertex="1">
          <mxGeometry x="46" y="510" width="244" height="140" as="geometry" />
        </mxCell>
      </root>
    </mxGraphModel>
  </diagram>
</mxfile>
